<svg width="36" height="36" viewBox="0 0 36 36" fill="none" xmlns="http://www.w3.org/2000/svg">
<g clip-path="url(#clip0_180_2703)">
<path fill-rule="evenodd" clip-rule="evenodd" d="M16.4154 1.875H19.5846C22.3413 1.87497 24.5247 1.87496 26.2335 2.10471C27.9921 2.34114 29.4156 2.83932 30.5382 3.96186C31.6607 5.08442 32.1588 6.50784 32.3954 8.26647C32.625 9.97529 32.625 12.1587 32.625 14.9154V21.0846C32.625 23.8413 32.625 26.0247 32.3954 27.7335C32.1588 29.4921 31.6607 30.9156 30.5382 32.0382C29.4156 33.1606 27.9921 33.6588 26.2335 33.8953C24.5247 34.125 22.3413 34.125 19.5846 34.125H16.4154C13.6587 34.125 11.4753 34.125 9.76647 33.8953C8.00784 33.6588 6.58442 33.1606 5.46186 32.0382C4.33932 30.9156 3.84114 29.4921 3.60471 27.7335C3.37496 26.0247 3.37497 23.8413 3.375 21.0846V14.9154C3.37497 12.1587 3.37496 9.97529 3.60471 8.26647C3.84114 6.50784 4.33932 5.08442 5.46186 3.96186C6.58442 2.83932 8.00784 2.34114 9.76647 2.10471C11.4753 1.87496 13.6587 1.87497 16.4154 1.875ZM10.0663 4.33464C8.55714 4.53753 7.68767 4.91804 7.05285 5.55285C6.41804 6.18767 6.03753 7.05714 5.83464 8.56627C5.62739 10.1078 5.625 12.1398 5.625 15V21C5.625 23.8602 5.62739 25.8922 5.83464 27.4338C6.03753 28.9428 6.41804 29.8123 7.05285 30.4471C7.68767 31.0819 8.55714 31.4625 10.0663 31.6653C11.6078 31.8726 13.6398 31.875 16.5 31.875H19.5C22.3602 31.875 24.3922 31.8726 25.9338 31.6653C27.4428 31.4625 28.3123 31.0819 28.9471 30.4471C29.5819 29.8123 29.9625 28.9428 30.1653 27.4338C30.3726 25.8922 30.375 23.8602 30.375 21V15C30.375 12.1398 30.3726 10.1078 30.1653 8.56627C29.9625 7.05714 29.5819 6.18767 28.9471 5.55285C28.3123 4.91804 27.4428 4.53753 25.9338 4.33464C24.3922 4.12739 22.3602 4.125 19.5 4.125H16.5C13.6398 4.125 11.6078 4.12739 10.0663 4.33464ZM18 7.875C18.6213 7.875 19.125 8.37869 19.125 9V10.875H21C21.6213 10.875 22.125 11.3787 22.125 12C22.125 12.6213 21.6213 13.125 21 13.125H19.125V15C19.125 15.6213 18.6213 16.125 18 16.125C17.3787 16.125 16.875 15.6213 16.875 15V13.125H15C14.3786 13.125 13.875 12.6213 13.875 12C13.875 11.3787 14.3786 10.875 15 10.875H16.875V9C16.875 8.37869 17.3787 7.875 18 7.875ZM10.875 21C10.875 20.3787 11.3787 19.875 12 19.875H24C24.6213 19.875 25.125 20.3787 25.125 21C25.125 21.6213 24.6213 22.125 24 22.125H12C11.3787 22.125 10.875 21.6213 10.875 21ZM12.375 27C12.375 26.3787 12.8787 25.875 13.5 25.875H22.5C23.1213 25.875 23.625 26.3787 23.625 27C23.625 27.6213 23.1213 28.125 22.5 28.125H13.5C12.8787 28.125 12.375 27.6213 12.375 27Z" fill="white"/>
</g>
<defs>
<clipPath id="clip0_180_2703">
<rect width="36" height="36" fill="white"/>
</clipPath>
</defs>
</svg>
