<svg width="24" height="24" viewBox="0 0 24 24" fill="none" xmlns="http://www.w3.org/2000/svg">
<g clip-path="url(#clip0_345_2427)">
<path d="M23 4.5V8H22V4.5C21.9995 4.10234 21.8413 3.72111 21.5601 3.43992C21.2789 3.15873 20.8977 3.00053 20.5 3H17V2H20.5C21.1628 2.00079 21.7982 2.26444 22.2669 2.73311C22.7356 3.20178 22.9992 3.8372 23 4.5ZM4.5 22C4.10234 21.9995 3.72111 21.8413 3.43992 21.5601C3.15873 21.2789 3.00053 20.8977 3 20.5V17H2V20.5C2.00079 21.1628 2.26444 21.7982 2.73311 22.2669C3.20178 22.7356 3.8372 22.9992 4.5 23H8V22H4.5ZM22 20.5C21.9995 20.8977 21.8413 21.2789 21.5601 21.5601C21.2789 21.8413 20.8977 21.9995 20.5 22H17V23H20.5C21.1628 22.9992 21.7982 22.7356 22.2669 22.2669C22.7356 21.7982 22.9992 21.1628 23 20.5V17H22V20.5ZM3 4.5C3.00053 4.10234 3.15873 3.72111 3.43992 3.43992C3.72111 3.15873 4.10234 3.00053 4.5 3H8V2H4.5C3.8372 2.00079 3.20178 2.26444 2.73311 2.73311C2.26444 3.20178 2.00079 3.8372 2 4.5V8H3V4.5ZM10 19V6H9V19H10ZM6 6V19H8V6H6ZM14 19V6H12V19H14ZM17 6V19H19V6H17ZM15 6V19H16V6H15Z" fill="white"/>
</g>
<defs>
<clipPath id="clip0_345_2427">
<rect width="24" height="24" fill="white"/>
</clipPath>
</defs>
</svg>
